<?xml version="1.0" encoding="UTF-8"?><svg xmlns="http://www.w3.org/2000/svg" xmlns:xlink="http://www.w3.org/1999/xlink" height="499.9" preserveAspectRatio="xMidYMid meet" version="1.0" viewBox="0.0 0.0 403.6 499.9" width="403.6" zoomAndPan="magnify"><defs><clipPath id="a"><path d="M 0 0 L 403.550781 0 L 403.550781 499.929688 L 0 499.929688 Z M 0 0"/></clipPath></defs><g><g clip-path="url(#a)" id="change1_1"><path d="M 238.582031 427.492188 C 241.082031 422.390625 242.382812 419.890625 241.980469 417.890625 C 241.179688 413.191406 235.28125 410.789062 229.382812 408.289062 C 224.78125 406.390625 218.382812 403.691406 216.382812 405.992188 C 214.480469 408.191406 219.179688 412.191406 221.78125 422.789062 C 223.78125 431.089844 222.679688 435.589844 225.582031 436.992188 C 228.78125 438.492188 233.582031 434.691406 233.980469 434.289062 C 235.882812 432.890625 236.882812 431.089844 238.582031 427.492188 Z M 259.980469 408.390625 C 258.679688 407.789062 254.28125 405.992188 250.78125 407.992188 C 247.082031 410.089844 246.582031 415.289062 246.179688 418.691406 C 245.28125 426.492188 248.179688 430.589844 245.78125 432.890625 C 243.582031 434.992188 239.28125 432.992188 238.882812 433.992188 C 238.382812 435.492188 247.980469 437.390625 254.179688 445.492188 C 257.582031 449.890625 257.082031 452.492188 260.679688 454.691406 C 263.882812 456.589844 269.082031 457.390625 272.582031 454.691406 C 275.78125 452.191406 275.980469 447.789062 275.980469 445.492188 C 275.980469 444.390625 276.082031 439.890625 272.582031 433.992188 C 267.679688 425.691406 262.382812 425.789062 259.980469 419.492188 C 259.179688 417.191406 258.480469 413.691406 259.980469 408.390625 Z M 162.082031 482.589844 C 165.082031 493.191406 175.082031 497.589844 175.882812 497.890625 C 184.882812 501.589844 198.082031 500.289062 200.78125 493.691406 C 202.582031 489.191406 199.382812 482.890625 195.78125 479.492188 C 193.480469 477.289062 191.082031 476.390625 189.28125 475.691406 C 181.28125 472.589844 177.679688 475.890625 172.882812 472.992188 C 167.480469 469.890625 167.78125 463.589844 165.582031 463.789062 C 162.78125 464.089844 159.582031 473.890625 162.082031 482.589844 Z M 189.28125 447.089844 C 192.082031 441.992188 193.582031 439.390625 193.082031 435.992188 C 192.382812 430.890625 187.582031 427.890625 185.382812 426.390625 C 183.582031 425.191406 177.582031 421.289062 170.480469 423.289062 C 169.980469 423.390625 161.882812 425.789062 160.582031 431.691406 C 159.582031 435.992188 163.382812 437.589844 166.679688 445.890625 C 170.582031 455.589844 167.679688 459.390625 172.082031 464.589844 C 176.28125 469.589844 183.28125 471.589844 184.679688 469.992188 C 186.082031 468.492188 181.480469 464.992188 181.980469 459.289062 C 182.382812 455.191406 184.980469 454.691406 189.28125 447.089844 Z M 207.582031 471.492188 C 216.382812 469.492188 220.980469 460.589844 222.082031 454.691406 C 222.679688 451.691406 221.980469 447.890625 220.582031 440.191406 C 218.882812 430.691406 217.882812 425.890625 214.882812 421.089844 C 213.382812 418.789062 208.480469 411.089844 203.382812 411.890625 C 198.980469 412.589844 196.78125 418.992188 196.480469 419.890625 C 192.480469 431.390625 202.679688 438.390625 199.179688 447.789062 C 196.179688 455.789062 186.882812 455.589844 186.980469 460.789062 C 186.980469 466.492188 197.882812 473.691406 207.582031 471.492188 Z M 157.480469 471.492188 C 157.78125 469.789062 158.582031 465.492188 159.78125 462.289062 C 161.78125 456.992188 163.980469 457.089844 164.382812 453.492188 C 164.679688 450.691406 163.679688 446.890625 161.28125 445.789062 C 158.78125 444.691406 157.179688 447.492188 153.28125 447.691406 C 146.882812 448.089844 144.480469 441.289062 139.882812 441.992188 C 135.582031 442.589844 132.582031 449.191406 131.882812 453.890625 C 130.28125 464.089844 137.882812 475.089844 146.382812 477.191406 C 149.082031 477.890625 154.179688 478.289062 156.28125 475.691406 C 156.980469 474.890625 156.980469 474.191406 157.480469 471.492188 Z M 221.78125 498.691406 C 232.980469 499.191406 240.882812 486.789062 247.382812 476.492188 C 252.480469 468.492188 255.28125 464.089844 254.28125 458.492188 C 252.082031 446.589844 234.082031 438.691406 228.679688 442.789062 C 226.082031 444.789062 228.28125 448.089844 225.582031 456.992188 C 224.179688 461.691406 221.882812 469.390625 215.679688 473.089844 C 209.382812 476.789062 203.980469 473.589844 201.882812 476.890625 C 199.582031 480.691406 204.679688 487.890625 207.582031 491.089844 C 209.179688 492.691406 214.480469 498.390625 221.78125 498.691406 Z M 299.78125 399.589844 C 284.28125 402.089844 275.382812 392.289062 270.28125 399.890625 C 264.882812 407.992188 261.480469 417.789062 264.882812 420.492188 C 267.582031 422.691406 272.980469 433.589844 282.78125 435.089844 C 286.980469 435.691406 290.28125 434.390625 291.679688 433.890625 C 328.78125 420.992188 342.179688 416.390625 341.382812 412.492188 C 340.980469 410.390625 336.980469 411.089844 332.582031 405.992188 C 331.679688 404.992188 329.382812 402.191406 328.382812 397.992188 C 327.28125 393.390625 328.980469 391.589844 327.882812 390.390625 C 325.28125 387.390625 314.882812 397.191406 299.78125 399.589844 Z M 375.582031 351.789062 C 373.679688 360.589844 362.980469 360.992188 351.480469 366.890625 C 339.980469 372.789062 338.082031 368.691406 333.480469 373.289062 C 328.882812 377.890625 334.28125 395.890625 344.980469 402.191406 C 355.679688 408.492188 364.082031 398.890625 364.582031 391.691406 C 365.082031 384.492188 380.179688 370.992188 389.679688 358.789062 C 399.179688 346.589844 404.179688 339.289062 403.480469 334.492188 C 402.679688 329.691406 396.582031 327.390625 391.28125 332.390625 C 385.980469 337.390625 382.882812 336.589844 382.882812 336.589844 C 388.179688 342.589844 377.480469 342.992188 375.582031 351.789062 Z M 382.382812 311.191406 C 375.480469 305.691406 373.980469 296.390625 368.980469 292.890625 C 363.980469 289.390625 362.082031 300.589844 368.980469 312.789062 C 375.882812 324.992188 380.480469 330.089844 380.480469 330.089844 C 404.980469 323.589844 389.28125 316.589844 382.382812 311.191406 Z M 233.980469 275.691406 C 235.882812 284.890625 234.78125 308.589844 236.28125 324.492188 C 237.78125 340.390625 227.480469 382.789062 223.882812 392.691406 C 220.28125 402.589844 251.179688 404.191406 258.082031 398.390625 C 264.980469 392.691406 249.679688 358.191406 248.480469 338.691406 C 247.28125 319.191406 263.382812 287.390625 272.582031 273.789062 C 281.78125 260.089844 258.082031 267.992188 246.980469 256.890625 C 235.882812 245.789062 230.582031 262.289062 230.582031 262.289062 C 226.582031 268.992188 232.082031 266.492188 233.980469 275.691406 Z M 339.179688 242.992188 C 338.382812 236.59375 333.382812 232.289062 331.179688 230.191406 C 319.679688 219.09375 323.882812 206.492188 315.480469 205.289062 C 309.78125 204.492188 289.480469 205.691406 290.980469 213.691406 C 290.980469 213.691406 271.082031 223.289062 261.480469 225.992188 C 251.882812 228.691406 236.28125 232.390625 241.179688 241.789062 C 246.179688 251.191406 259.179688 248.890625 264.882812 255.789062 C 270.582031 262.691406 277.480469 258.089844 280.582031 249.691406 C 283.679688 241.289062 297.78125 224.492188 303.882812 227.492188 C 309.980469 230.59375 314.582031 228.289062 318.082031 237.789062 C 320.980469 245.691406 322.480469 258.691406 324.679688 258.691406 C 325.179688 258.691406 325.382812 257.992188 326.082031 256.890625 C 330.082031 250.992188 336.980469 251.890625 338.882812 247.390625 C 339.582031 245.992188 339.382812 244.789062 339.179688 242.992188 Z M 363.679688 285.191406 C 363.679688 285.191406 354.882812 264.191406 348.382812 254.992188 C 341.882812 245.789062 318.882812 264.589844 328.480469 268.390625 C 338.082031 272.191406 360.980469 294.390625 363.679688 285.191406 Z M 193.082031 334.589844 C 195.78125 344.492188 191.980469 380.890625 191.980469 391.589844 C 191.980469 402.289062 199.679688 403.492188 210.679688 401.191406 C 221.679688 398.890625 219.882812 382.492188 218.382812 373.289062 C 216.882812 364.089844 208.480469 319.390625 210.679688 301.492188 C 212.882812 283.589844 219.480469 274.992188 223.28125 267.289062 C 227.082031 259.589844 211.382812 250.890625 203.78125 248.191406 C 196.179688 245.492188 189.582031 247.390625 180.679688 250.492188 C 171.78125 253.589844 178.882812 276.492188 178.882812 276.492188 C 189.28125 283.691406 190.382812 324.589844 193.082031 334.589844 Z M 194.980469 187.691406 C 194.179688 208.390625 181.582031 222.09375 180.78125 230.890625 C 179.980469 239.691406 184.582031 242.789062 194.980469 239.691406 C 205.382812 236.59375 207.582031 244.289062 219.882812 244.789062 C 232.179688 245.289062 225.582031 229.789062 220.980469 222.09375 C 216.382812 214.390625 217.582031 191.09375 218.28125 170.09375 C 218.980469 149.09375 222.882812 144.890625 225.679688 136.390625 C 228.480469 127.890625 224.78125 122.191406 214.480469 122.992188 C 204.179688 123.789062 209.179688 123.390625 198.480469 121.492188 C 187.882812 119.59375 195.78125 142.492188 195.78125 142.492188 C 202.679688 150.191406 195.78125 166.992188 194.980469 187.691406 Z M 203.382812 78.289062 C 202.78125 83.492188 200.78125 86.390625 198.480469 91.289062 C 194.582031 99.390625 190.980469 107.09375 193.582031 110.789062 C 194.882812 112.492188 197.28125 113.492188 201.480469 113.492188 C 214.882812 113.492188 207.980469 119.191406 220.582031 117.691406 C 233.179688 116.191406 225.582031 106.59375 223.28125 94.09375 C 220.980469 81.59375 224.382812 83.289062 225.679688 71.390625 C 226.882812 59.492188 233.28125 50.390625 222.179688 51.09375 C 211.082031 51.789062 215.28125 49.191406 203.28125 49.191406 C 191.28125 49.191406 203.28125 71.390625 203.28125 71.390625 C 203.480469 72.992188 203.679688 75.390625 203.382812 78.289062 Z M 224.082031 29.289062 C 220.980469 23.992188 222.480469 10.992188 217.179688 1.789062 C 211.882812 -7.40625 212.582031 21.289062 205.28125 33.59375 C 197.980469 45.890625 212.582031 43.492188 212.582031 43.492188 C 227.082031 50.691406 227.082031 34.691406 224.082031 29.289062 Z M 144.882812 326.890625 C 154.78125 350.589844 156.78125 374.289062 159.78125 389.289062 C 162.882812 404.191406 167.78125 414.492188 173.980469 419.089844 C 180.179688 423.691406 180.082031 416.789062 185.882812 406.890625 C 191.582031 396.992188 178.582031 374.390625 172.882812 365.589844 C 167.179688 356.789062 158.980469 311.589844 159.382812 290.992188 C 159.78125 270.390625 146.382812 274.191406 136.78125 274.191406 C 127.179688 274.191406 125.382812 285.289062 125.382812 285.289062 C 121.582031 293.191406 134.882812 303.191406 144.882812 326.890625 Z M 114.28125 219.789062 C 116.179688 230.09375 114.28125 254.589844 118.882812 266.089844 C 123.480469 277.589844 142.179688 266.890625 149.480469 264.191406 C 156.78125 261.492188 141.78125 232.789062 134.582031 220.59375 C 127.28125 208.390625 126.882812 185.390625 126.882812 171.789062 C 126.882812 158.191406 123.480469 159.789062 114.28125 163.992188 C 105.082031 168.191406 110.882812 163.59375 99.382812 163.992188 C 87.882812 164.390625 99.382812 179.691406 99.382812 179.691406 C 105.082031 184.59375 112.382812 209.492188 114.28125 219.789062 Z M 88.980469 148.691406 C 88.582031 162.492188 112.28125 157.09375 117.679688 156.191406 C 123.082031 155.289062 124.179688 144.789062 117.679688 140.992188 C 111.179688 137.191406 109.980469 116.09375 109.28125 106.992188 C 108.582031 97.890625 109.28125 95.492188 104.28125 98.59375 C 99.28125 101.691406 95.882812 97.492188 87.480469 97.09375 C 79.082031 96.691406 87.480469 106.992188 87.480469 106.992188 C 93.582031 111.59375 89.382812 134.890625 88.980469 148.691406 Z M 101.28125 92.09375 C 108.582031 92.09375 107.382812 78.691406 98.179688 72.191406 C 88.980469 65.691406 91.679688 49.992188 85.582031 44.191406 C 79.480469 38.390625 84.480469 64.890625 82.382812 78.59375 C 80.28125 92.289062 85.582031 91.992188 85.582031 91.992188 C 90.980469 96.691406 93.980469 92.09375 101.28125 92.09375 Z M 158.679688 419.089844 C 164.78125 417.992188 164.78125 413.390625 158.679688 405.289062 C 152.582031 397.289062 136.082031 368.589844 130.382812 355.992188 C 124.679688 343.390625 118.480469 320.390625 116.582031 307.789062 C 114.679688 295.191406 104.582031 290.992188 92.882812 303.191406 C 81.179688 315.390625 90.980469 326.890625 105.480469 343.390625 C 119.980469 359.890625 126.480469 393.492188 128.480469 412.589844 C 130.382812 431.691406 142.28125 431.691406 142.28125 431.691406 C 148.980469 434.691406 152.480469 420.289062 158.679688 419.089844 Z M 79.882812 292.089844 C 78.78125 298.589844 85.582031 304.691406 89.082031 299.390625 C 92.582031 294.089844 100.980469 292.089844 107.480469 290.191406 C 113.980469 288.289062 112.082031 278.289062 103.679688 275.289062 C 95.28125 272.289062 91.082031 267.289062 79.179688 254.589844 C 67.28125 241.992188 65.78125 238.492188 57.382812 244.789062 C 48.980469 251.089844 57.382812 254.589844 57.382812 254.589844 C 64.582031 261.890625 80.980469 285.589844 79.882812 292.089844 Z M 38.480469 230.492188 C 40.78125 242.390625 43.480469 247.289062 49.980469 243.492188 C 56.480469 239.691406 52.679688 236.59375 65.679688 234.289062 C 78.679688 231.992188 48.480469 208.691406 41.980469 204.09375 C 35.480469 199.492188 40.480469 193.789062 36.28125 188.789062 C 32.082031 183.789062 30.582031 197.191406 23.679688 200.289062 C 16.78125 203.390625 25.179688 207.191406 25.179688 207.191406 C 33.980469 215.59375 36.179688 218.691406 38.480469 230.492188 Z M 15.980469 195.691406 C 15.980469 195.691406 12.882812 194.890625 11.78125 184.59375 C 10.679688 174.289062 -5.820312 165.09375 2.179688 157.789062 C 10.179688 150.492188 9.082031 169.691406 15.980469 173.09375 C 22.882812 176.492188 36.28125 184.59375 28.582031 188.390625 C 20.882812 192.191406 24.78125 199.59375 15.980469 195.691406" fill="#3b393d"/></g><g id="change2_1"><path d="M 330.382812 414.289062 C 321.082031 415.492188 311.882812 417.992188 302.679688 419.992188 C 293.082031 421.992188 283.480469 423.289062 274.679688 418.390625 C 281.78125 419.492188 289.179688 419.289062 296.28125 418.890625 C 296.78125 418.890625 296.78125 418.089844 296.28125 418.089844 C 287.480469 417.992188 278.980469 416.492188 270.28125 415.691406 C 269.179688 415.589844 269.082031 417.289062 270.082031 417.492188 C 270.582031 417.589844 271.082031 417.691406 271.582031 417.789062 C 271.28125 418.289062 271.382812 418.992188 271.882812 419.492188 C 279.082031 424.992188 288.480469 424.789062 296.980469 423.089844 C 308.082031 420.890625 319.679688 418.492188 330.382812 414.992188 C 330.882812 414.789062 330.78125 414.191406 330.382812 414.289062 Z M 396.980469 334.390625 C 396.582031 333.890625 395.882812 334.492188 396.179688 334.992188 C 399.882812 341.492188 389.179688 349.890625 385.082031 353.789062 C 380.78125 357.890625 375.980469 361.492188 371.882812 365.890625 C 368.480469 369.492188 365.480469 373.390625 363.082031 377.691406 C 360.382812 382.492188 358.382812 393.191406 351.582031 392.691406 C 350.382812 392.589844 350.082031 394.691406 351.28125 394.890625 C 356.882812 395.789062 359.382812 391.289062 361.28125 386.789062 C 364.679688 378.390625 369.082031 371.089844 375.582031 364.589844 C 381.480469 358.589844 387.980469 353.191406 393.582031 346.890625 C 396.480469 343.492188 400.480469 338.589844 396.980469 334.390625 Z M 375.480469 311.289062 C 377.382812 314.992188 381.082031 318.191406 384.28125 320.691406 C 384.78125 321.089844 385.679688 320.589844 385.28125 319.890625 C 383.28125 316.390625 379.082031 314.589844 376.882812 311.191406 C 374.082031 306.992188 372.582031 301.890625 370.382812 297.289062 C 370.179688 296.890625 369.480469 297.191406 369.679688 297.589844 C 371.480469 302.191406 373.28125 306.890625 375.480469 311.289062 Z M 359.882812 282.289062 C 360.582031 283.390625 362.179688 282.390625 361.582031 281.289062 C 358.179688 275.089844 354.382812 268.390625 350.082031 262.789062 C 347.382812 259.289062 343.480469 256.289062 338.882812 257.789062 C 338.480469 257.890625 338.582031 258.492188 338.980469 258.492188 C 345.679688 258.390625 348.78125 263.589844 351.78125 268.691406 C 354.480469 273.191406 356.980469 277.890625 359.882812 282.289062 Z M 307.582031 211.691406 C 298.980469 210.992188 292.28125 219.09375 285.480469 222.992188 C 275.382812 228.890625 264.78125 231.691406 253.28125 232.890625 C 252.582031 232.992188 252.480469 234.09375 253.28125 233.992188 C 261.78125 233.890625 270.082031 231.691406 277.882812 228.59375 C 285.480469 225.59375 291.382812 220.691406 298.28125 216.390625 C 304.179688 212.691406 311.382812 211.789062 314.582031 219.289062 C 315.679688 221.992188 316.679688 224.492188 318.382812 226.890625 C 322.679688 232.992188 328.882812 237.789062 330.28125 245.492188 C 330.480469 246.691406 332.382812 246.191406 332.179688 244.992188 C 330.78125 237.09375 324.480469 232.191406 320.082031 225.890625 C 316.179688 220.492188 315.78125 212.289062 307.582031 211.691406 Z M 247.382812 295.789062 C 247.382812 296.589844 248.480469 296.691406 248.78125 295.992188 C 251.28125 288.691406 250.980469 279.191406 249.679688 271.691406 C 249.582031 271.191406 248.882812 271.390625 248.882812 271.789062 C 248.980469 275.789062 249.179688 279.789062 248.882812 283.789062 C 248.480469 287.890625 247.582031 291.789062 247.382812 295.789062 Z M 233.980469 392.191406 C 238.882812 369.589844 242.480469 346.589844 244.382812 323.589844 C 245.28125 312.492188 246.082031 301.289062 245.882812 290.089844 C 245.78125 285.589844 245.382812 281.089844 244.179688 276.789062 C 243.679688 274.890625 243.082031 272.992188 242.28125 271.191406 C 241.582031 269.691406 236.382812 262.589844 239.480469 261.390625 C 240.179688 261.089844 239.882812 259.992188 239.179688 260.289062 C 237.480469 260.890625 236.679688 262.089844 236.882812 263.992188 C 236.980469 265.789062 238.480469 267.691406 239.382812 269.191406 C 240.882812 271.992188 242.082031 274.890625 242.78125 277.992188 C 245.582031 289.589844 243.882812 302.089844 242.980469 313.789062 C 241.082031 339.890625 237.382812 365.890625 231.78125 391.492188 C 231.28125 392.992188 233.582031 393.691406 233.980469 392.191406 Z M 250.480469 459.492188 C 247.28125 466.691406 244.480469 473.890625 240.382812 480.589844 C 235.980469 487.691406 224.980469 498.691406 216.082031 491.289062 C 215.679688 490.890625 214.980469 491.492188 215.382812 491.992188 C 221.179688 497.589844 230.480469 493.390625 235.679688 488.890625 C 243.582031 481.890625 248.980469 470.089844 252.28125 460.289062 C 252.582031 459.191406 250.882812 458.492188 250.480469 459.492188 Z M 183.980469 493.890625 C 180.179688 492.089844 176.679688 490.890625 173.480469 487.890625 C 170.082031 484.789062 168.179688 481.191406 166.480469 476.992188 C 166.28125 476.589844 165.679688 476.691406 165.78125 477.191406 C 167.179688 485.390625 175.082031 494.390625 183.582031 495.492188 C 184.382812 495.589844 184.679688 494.289062 183.980469 493.890625 Z M 139.179688 450.390625 C 139.28125 449.992188 138.679688 449.691406 138.480469 450.089844 C 134.179688 457.992188 141.78125 468.992188 147.480469 473.992188 C 148.480469 474.890625 149.980469 473.390625 148.980469 472.492188 C 142.382812 466.789062 137.679688 459.289062 139.179688 450.390625 Z M 123.78125 360.089844 C 124.382812 361.289062 126.179688 360.191406 125.582031 358.992188 C 119.28125 344.992188 110.679688 331.589844 100.980469 319.691406 C 100.679688 319.289062 99.882812 319.789062 100.179688 320.289062 C 109.082031 333.089844 116.679688 346.289062 123.78125 360.089844 Z M 142.382812 425.890625 C 143.78125 426.289062 144.480469 424.089844 142.980469 423.691406 C 133.480469 420.890625 133.882812 404.289062 132.582031 396.492188 C 130.882812 386.089844 128.882812 375.589844 125.179688 365.589844 C 118.179688 346.890625 102.78125 333.691406 94.582031 315.691406 C 94.28125 314.992188 93.179688 315.492188 93.382812 316.191406 C 96.78125 325.992188 103.78125 334.191406 109.882812 342.390625 C 116.882812 351.992188 122.179688 361.992188 125.480469 373.492188 C 128.582031 384.289062 130.179688 395.390625 131.882812 406.492188 C 133.082031 413.691406 134.082031 423.589844 142.382812 425.890625 Z M 87.582031 293.691406 C 87.082031 294.992188 85.582031 291.890625 85.480469 291.789062 C 84.980469 290.691406 84.78125 289.089844 84.480469 287.890625 C 83.980469 286.089844 83.480469 284.289062 82.78125 282.492188 C 82.082031 280.691406 81.28125 278.992188 80.28125 277.191406 C 78.882812 268.992188 74.582031 261.691406 69.382812 255.289062 C 68.980469 254.789062 68.179688 255.492188 68.582031 255.890625 C 71.679688 260.089844 73.882812 264.589844 75.582031 269.289062 C 71.28125 262.691406 65.78125 254.691406 59.28125 250.492188 C 59.082031 250.289062 58.679688 250.691406 58.882812 250.890625 C 62.28125 255.890625 66.980469 259.992188 70.480469 264.992188 C 73.28125 268.890625 75.882812 273.089844 78.082031 277.390625 C 78.28125 278.089844 78.480469 278.890625 78.679688 279.589844 C 78.78125 279.992188 79.179688 280.289062 79.480469 280.289062 C 79.679688 280.789062 79.980469 281.289062 80.179688 281.890625 C 81.382812 284.789062 82.082031 287.691406 82.882812 290.789062 C 83.28125 292.492188 83.480469 294.789062 84.882812 295.992188 C 86.78125 297.691406 88.980469 296.492188 89.480469 294.191406 C 89.78125 292.992188 87.980469 292.492188 87.582031 293.691406 Z M 48.480469 236.09375 C 44.78125 236.890625 43.480469 232.890625 42.78125 229.191406 C 45.382812 221.691406 40.980469 212.691406 36.082031 207.09375 C 35.582031 206.59375 34.882812 207.289062 35.28125 207.890625 C 37.78125 210.992188 39.480469 214.59375 40.582031 218.492188 C 40.882812 219.789062 41.082031 220.992188 41.179688 222.289062 C 40.480469 220.390625 39.582031 218.59375 38.582031 216.789062 C 37.179688 214.09375 35.582031 211.289062 33.679688 208.890625 C 32.382812 207.390625 25.980469 202.992188 27.582031 200.890625 C 27.882812 200.492188 27.382812 199.890625 26.980469 200.289062 C 25.78125 201.691406 25.78125 203.191406 26.882812 204.789062 C 28.679688 207.289062 31.679688 208.09375 33.382812 210.890625 C 34.882812 213.191406 36.179688 215.992188 37.382812 218.492188 C 39.082031 222.191406 40.28125 225.691406 40.78125 229.691406 C 40.980469 231.492188 41.082031 233.390625 41.980469 235.09375 C 43.480469 237.691406 45.980469 239.09375 48.882812 238.09375 C 50.179688 237.59375 49.679688 235.890625 48.480469 236.09375 Z M 14.582031 182.09375 C 14.082031 179.789062 14.179688 177.492188 12.980469 175.492188 C 11.78125 173.59375 9.679688 172.289062 8.082031 170.59375 C 5.679688 167.992188 4.382812 165.09375 2.980469 161.890625 C 2.679688 161.09375 1.480469 161.691406 1.679688 162.492188 C 2.28125 165.492188 3.78125 168.191406 5.679688 170.59375 C 7.480469 172.890625 10.082031 174.390625 11.480469 177.09375 C 12.882812 179.789062 12.679688 182.992188 13.882812 185.890625 C 15.082031 188.992188 17.082031 191.492188 19.582031 193.59375 C 20.480469 194.289062 21.78125 193.09375 20.882812 192.289062 C 17.78125 189.390625 15.582031 186.09375 14.582031 182.09375 Z M 216.082031 40.992188 C 218.480469 36.691406 218.082031 31.191406 217.78125 26.390625 C 217.480469 20.289062 216.78125 14.289062 216.882812 8.191406 C 216.882812 7.691406 215.980469 7.492188 215.882812 8.09375 C 215.082031 13.289062 215.582031 18.492188 215.78125 23.691406 C 216.082031 29.59375 214.980469 34.789062 214.582031 40.59375 C 214.582031 41.390625 215.679688 41.691406 216.082031 40.992188 Z M 211.28125 69.191406 C 210.882812 73.390625 211.179688 77.390625 210.28125 81.492188 C 209.480469 85.09375 207.78125 88.390625 206.582031 91.890625 C 206.28125 92.691406 207.382812 92.992188 207.882812 92.390625 C 212.28125 86.59375 214.382812 75.992188 212.082031 69.09375 C 211.882812 68.691406 211.382812 68.789062 211.28125 69.191406 Z M 200.679688 108.691406 C 201.179688 109.09375 202.179688 108.789062 201.882812 107.992188 C 198.882812 98.492188 208.082031 90.492188 209.882812 81.390625 C 210.582031 77.789062 209.980469 74.59375 208.582031 71.289062 C 206.382812 65.992188 201.980469 60.09375 206.480469 54.691406 C 206.882812 54.191406 206.28125 53.59375 205.78125 53.992188 C 203.382812 56.390625 202.882812 59.691406 203.382812 62.992188 C 204.480469 69.992188 209.480469 74.789062 207.480469 82.492188 C 205.882812 88.492188 201.882812 93.492188 199.679688 99.289062 C 198.582031 102.289062 197.679688 106.492188 200.679688 108.691406 Z M 209.179688 163.191406 C 208.28125 168.890625 207.679688 174.691406 206.679688 180.390625 C 205.78125 185.492188 204.480469 190.691406 203.882812 195.789062 C 203.78125 196.691406 205.179688 196.789062 205.382812 195.992188 C 208.382812 185.890625 209.679688 173.789062 210.082031 163.289062 C 210.179688 162.789062 209.28125 162.691406 209.179688 163.191406 Z M 201.582031 393.890625 C 198.882812 392.890625 197.382812 389.089844 197.382812 386.390625 C 197.382812 384.890625 197.679688 383.289062 197.78125 381.789062 C 198.082031 378.890625 198.382812 375.890625 198.679688 372.992188 C 199.179688 367.492188 199.582031 361.890625 199.882812 356.289062 C 200.480469 344.492188 200.582031 332.691406 200.179688 320.992188 C 199.980469 315.089844 199.679688 309.390625 198.480469 303.789062 C 198.980469 298.890625 198.082031 293.789062 196.28125 289.191406 C 193.882812 282.992188 189.082031 277.789062 189.980469 270.691406 C 190.082031 270.191406 189.082031 269.992188 188.980469 270.589844 C 188.179688 275.390625 189.78125 279.589844 191.78125 283.992188 C 193.582031 287.890625 194.78125 291.390625 195.582031 294.992188 C 195.28125 294.390625 194.980469 293.789062 194.679688 293.191406 C 192.28125 288.492188 189.582031 284.089844 187.78125 279.089844 C 185.679688 273.492188 185.082031 267.589844 185.082031 261.589844 C 185.082031 260.890625 183.980469 260.890625 183.980469 261.589844 C 183.179688 272.390625 186.480469 281.890625 191.480469 291.191406 C 193.78125 295.390625 195.480469 299.492188 196.582031 303.890625 C 196.582031 304.289062 196.582031 304.789062 196.582031 305.191406 C 196.582031 305.492188 196.78125 305.691406 196.980469 305.890625 C 197.28125 307.289062 197.480469 308.789062 197.582031 310.289062 C 198.082031 317.089844 198.179688 323.890625 198.28125 330.691406 C 198.382812 343.789062 197.882812 356.890625 196.78125 369.890625 C 196.28125 375.691406 194.582031 382.289062 195.28125 388.089844 C 195.679688 391.789062 197.480469 394.589844 201.179688 395.589844 C 202.382812 396.191406 202.882812 394.289062 201.582031 393.890625 Z M 189.980469 230.789062 C 192.480469 222.390625 196.28125 214.492188 199.082031 206.191406 C 201.78125 198.289062 203.679688 190.09375 204.78125 181.789062 C 207.082031 164.992188 206.582031 147.09375 201.679688 130.691406 C 201.480469 130.09375 200.582031 130.289062 200.679688 130.992188 C 204.082031 148.691406 205.28125 166.289062 202.382812 184.191406 C 201.082031 192.390625 198.980469 200.390625 196.179688 208.191406 C 193.78125 214.890625 187.882812 223.289062 188.480469 230.691406 C 188.582031 231.390625 189.78125 231.691406 189.980469 230.789062 Z M 92.179688 86.09375 C 86.78125 74.789062 86.582031 63.191406 87.382812 50.992188 C 87.382812 50.492188 86.582031 50.492188 86.582031 50.992188 C 85.679688 62.992188 84.179688 76.289062 90.28125 87.289062 C 90.980469 88.492188 92.882812 87.390625 92.179688 86.09375 Z M 100.082031 138.789062 C 100.28125 136.691406 99.980469 134.59375 99.980469 132.59375 C 99.980469 130.492188 100.179688 128.390625 100.082031 126.390625 C 100.082031 125.789062 99.28125 125.691406 99.082031 126.289062 C 97.78125 129.992188 97.382812 135.289062 98.179688 139.191406 C 98.480469 140.191406 100.082031 139.890625 100.082031 138.789062 Z M 92.980469 131.890625 C 92.480469 138.09375 91.28125 146.992188 96.480469 151.59375 C 97.582031 152.492188 99.082031 151.09375 98.082031 149.992188 C 91.382812 143.289062 95.679688 128.289062 96.582031 119.992188 C 97.28125 113.191406 94.882812 108.289062 90.679688 103.09375 C 90.382812 102.691406 89.679688 103.191406 89.882812 103.691406 C 92.679688 108.289062 95.179688 112.492188 94.78125 118.09375 C 94.480469 122.691406 93.28125 127.289062 92.980469 131.890625 Z M 154.480469 335.890625 C 154.679688 337.089844 156.679688 336.789062 156.582031 335.589844 C 155.882812 328.789062 153.980469 322.191406 151.082031 315.890625 C 147.78125 308.589844 141.480469 302.289062 140.28125 294.191406 C 140.179688 293.691406 139.382812 293.789062 139.480469 294.289062 C 140.179688 300.992188 144.082031 306.390625 147.082031 312.191406 C 151.082031 319.789062 153.179688 327.589844 154.480469 335.890625 Z M 173.78125 407.492188 C 174.882812 408.089844 175.980469 406.691406 175.082031 405.789062 C 167.78125 398.789062 165.28125 390.691406 163.480469 380.992188 C 161.582031 370.191406 159.480469 359.492188 156.582031 348.890625 C 153.679688 338.289062 150.082031 327.890625 145.882812 317.691406 C 143.882812 312.789062 141.679688 307.992188 139.382812 303.289062 C 136.382812 297.191406 132.980469 291.390625 132.980469 284.390625 C 132.980469 283.789062 131.980469 283.789062 131.980469 284.390625 C 131.480469 295.789062 138.980469 306.390625 143.179688 316.589844 C 147.980469 328.191406 151.980469 340.089844 155.082031 352.191406 C 157.980469 363.390625 159.679688 374.691406 161.980469 385.992188 C 163.679688 393.589844 166.382812 403.191406 173.78125 407.492188 Z M 123.582031 247.789062 C 123.679688 248.992188 125.382812 248.992188 125.480469 247.789062 C 125.980469 232.59375 125.78125 216.789062 119.882812 202.691406 C 119.78125 202.390625 119.179688 202.492188 119.28125 202.890625 C 124.882812 217.492188 122.78125 232.492188 123.582031 247.789062 Z M 104.582031 177.191406 C 103.28125 174.191406 102.082031 171.691406 103.179688 168.492188 C 103.382812 167.789062 104.480469 168.09375 104.28125 168.789062 C 102.882812 173.59375 107.382812 179.691406 109.179688 183.992188 C 110.679688 187.59375 112.082031 191.289062 113.382812 194.992188 C 116.082031 202.992188 118.179688 211.09375 119.679688 219.390625 C 121.082031 227.492188 121.980469 235.59375 122.179688 243.789062 C 122.382812 250.992188 120.679688 261.390625 127.480469 266.089844 C 128.679688 266.890625 127.582031 268.992188 126.28125 268.089844 C 120.882812 264.390625 119.980469 257.992188 119.882812 251.789062 C 119.679688 241.59375 119.480469 231.691406 117.882812 221.59375 C 116.382812 211.492188 113.882812 201.492188 110.582031 191.890625 C 108.882812 186.890625 106.78125 181.992188 104.582031 177.191406" fill="#fff"/></g></g></svg>