<svg xmlns="http://www.w3.org/2000/svg" viewBox="0 0 231.72 71.84"><defs><style>.cls-1{fill:#C85114;}.cls-2{fill:#288222;}.cls-3{fill:#33006f;}</style></defs><title>Memorial Care Logo</title><path class="cls-1" d="M198.25,33,186.74,18.78l.64-.59,10.87,9.41v-12l-12.59-5.32a2.33,2.33,0,0,0-3.25,2.1v13.3a7.55,7.55,0,0,0,2.66,5.74l13.18,11.26V33Z"/><path class="cls-2" d="M217.71.24,200,8.79a3,3,0,0,0-1.73,2.73v4l2.88,1.21a3,3,0,0,1,1.88,2.8v4l14.76-12.6.64.59L203,29.59V47.25l16-16.71a7.53,7.53,0,0,0,2.1-5.2V2.29A2.33,2.33,0,0,0,217.71.24Z"/><path class="cls-3" d="M203,23.51v-4a3,3,0,0,0-1.88-2.8l-2.88-1.21v12Z"/><path class="cls-3" d="M25.82,65.18l.54,6.24H21.64l-1-13.48a35.65,35.65,0,0,1,0-3.86h-.07a40.84,40.84,0,0,1-1.37,3.86L15,67.13H11.31l-4.14-9.2A40.18,40.18,0,0,1,5.8,54H5.73a36.17,36.17,0,0,1,0,3.9l-1,13.48H0l.39-4.66L2,46.49H6.78L11.9,58.36c.6,1.44,1.23,3.34,1.23,3.34h.07s.63-1.9,1.23-3.34l5.13-11.87h4.77Zm3.09-2.71a9.17,9.17,0,0,0,9.62,9.37,10.89,10.89,0,0,0,7.2-2.7L43.87,66a8.14,8.14,0,0,1-5,2,5.15,5.15,0,0,1-5.37-4.81H45.84s.11-1.12.11-1.65c0-4.74-2.81-8.5-7.93-8.5C32.64,53.09,28.91,57,28.91,62.47Zm4.7-2.32A4.29,4.29,0,0,1,38,56.53a3.48,3.48,0,0,1,3.37,3.62ZM50.26,71.42h4.42V63.55A9.15,9.15,0,0,1,55,61.31c.56-2.28,2.07-4.14,4.32-4.14s2.42,1.65,2.42,3.58V71.42h4.46V63.55a7.81,7.81,0,0,1,.28-2.28c.49-2.25,2.07-4.11,4.28-4.11s2.46,1.55,2.46,3.58V69c0,1.69.7,2.39,2.39,2.39h4.21V67.66H78.42a.7.7,0,0,1-.77-.77v-7c0-4.7-2.14-6.81-5.86-6.81a6.92,6.92,0,0,0-6.11,3.69H65.6a5,5,0,0,0-5.23-3.69,6.67,6.67,0,0,0-5.79,3.72h-.07s0-.39,0-.77v-.53c0-1.26-.77-2-2.35-2H48.08V57.3h1.4a.69.69,0,0,1,.77.77Zm30.86-9c0,5.51,4.35,9.37,9.79,9.37s9.83-3.86,9.83-9.37-4.35-9.37-9.83-9.37S81.12,57,81.12,62.47Zm4.49,0A5.32,5.32,0,1,1,90.92,68,5.34,5.34,0,0,1,85.62,62.47Zm18.56,9h4.42V64.33a10.82,10.82,0,0,1,.39-2.91,5,5,0,0,1,4.88-3.76,7.91,7.91,0,0,1,1.09.07V53.34a5.72,5.72,0,0,0-.81-.07,6.16,6.16,0,0,0-5.69,4.6h-.07a8.15,8.15,0,0,0,.07-1.12V55.69c0-1.51-.81-2.18-2.39-2.18H102V57.3h1.4a.69.69,0,0,1,.77.77ZM119.59,69c0,1.69.7,2.39,2.35,2.39h4.25V67.66h-1.4a.7.7,0,0,1-.77-.77v-11c0-1.65-.7-2.39-2.35-2.39h-4.25V57.3h1.4a.69.69,0,0,1,.77.77Zm.21-18.43h3.86V46.49H119.8Zm8.84,15.66c0,3.58,2.91,5.58,6.11,5.58a5.83,5.83,0,0,0,5.41-3.16h.07s0,.32,0,.77c0,1.05.63,2,2.28,2h4V67.66h-1.4a.7.7,0,0,1-.77-.77V60.22c0-4-1.76-7.13-7.72-7.13-1.86,0-6.57.35-6.57,3.69v1.9h4.14v-.95c0-1,1.58-1.19,2.39-1.19,2.28,0,3.3.95,3.3,3.51v.14h-.56C136.37,60.18,128.65,60.64,128.65,66.26Zm4.49-.21c0-2.49,3.69-2.81,6-2.81h.77v.42c0,2.18-1.69,4.7-4.07,4.7C134,68.36,133.14,67.24,133.14,66Zm15.92,3c0,1.69.7,2.39,2.39,2.39h4.21V67.66h-1.37a.7.7,0,0,1-.77-.77v-18c0-1.65-.74-2.39-2.39-2.39h-4.25v3.79h1.4a.69.69,0,0,1,.77.77Z"/><path class="cls-2" d="M170.42,46.07c3.19,0,9.44,1.33,9.44,5.58v2.77h-4.18V53c0-1.83-3-2.67-5.16-2.67-4.46,0-8,3.19-8,8.39,0,4.88,3.58,8.81,8.11,8.81a10.63,10.63,0,0,0,7.55-3.3l2.42,3.3a13.81,13.81,0,0,1-10,4.28c-7.62,0-12.81-5.72-12.81-13.1A12.38,12.38,0,0,1,170.42,46.07Zm22.81,14.11h.56V60c0-2.56-1-3.51-3.3-3.51-.81,0-2.39.21-2.39,1.19v.95H184v-1.9c0-3.34,4.7-3.69,6.57-3.69,6,0,7.72,3.12,7.72,7.13v6.67a.7.7,0,0,0,.77.77h1.4v3.76h-4c-1.65,0-2.28-.91-2.28-2,0-.46,0-.77,0-.77h-.07a5.83,5.83,0,0,1-5.41,3.16c-3.19,0-6.11-2-6.11-5.58C182.59,60.64,190.31,60.18,193.23,60.18Zm-3.44,8.18c2.39,0,4.07-2.53,4.07-4.7v-.42h-.77c-2.32,0-6,.32-6,2.81C187.08,67.24,188,68.36,189.79,68.36ZM213,53.27a6.16,6.16,0,0,0-5.69,4.6h-.07a8.15,8.15,0,0,0,.07-1.12V55.69c0-1.51-.81-2.18-2.39-2.18H203v17.9h4.44V64.33a10.82,10.82,0,0,1,.39-2.91,5,5,0,0,1,4.88-3.76,7.91,7.91,0,0,1,1.09.07V53.34A5.72,5.72,0,0,0,213,53.27Zm10.8-.18c5.13,0,7.93,3.76,7.93,8.5,0,.53-.11,1.65-.11,1.65H219.26A5.15,5.15,0,0,0,224.63,68a8.14,8.14,0,0,0,5-2l1.86,3.09a10.89,10.89,0,0,1-7.2,2.7,9.17,9.17,0,0,1-9.62-9.37C214.7,57,218.42,53.09,223.79,53.09Zm3.37,7.06a3.48,3.48,0,0,0-3.37-3.62,4.29,4.29,0,0,0-4.39,3.62Z"/></svg>